HIERARCHY
ROOT joint_Root
{
	OFFSET 0.0 0.0 0.0
	CHANNELS 6 Xposition Yposition Zposition Zrotation Xrotation Yrotation 
	JOINT Hips
	{
		OFFSET 4.5925 91.4895 -427.239
		CHANNELS 6 Xposition Yposition Zposition Zrotation Xrotation Yrotation 
		JOINT Spine
		{
			OFFSET 15.7357 0.0 0.0
			CHANNELS 6 Xposition Yposition Zposition Zrotation Xrotation Yrotation 
			JOINT Chest
			{
				OFFSET 8.98455 -0.406207 0.0
				CHANNELS 6 Xposition Yposition Zposition Zrotation Xrotation Yrotation 
				JOINT Neck
				{
					OFFSET 16.3773 0.0 0.0
					CHANNELS 6 Xposition Yposition Zposition Zrotation Xrotation Yrotation 
					JOINT Head
					{
						OFFSET 6.45672 0.0 0.0
						CHANNELS 6 Xposition Yposition Zposition Zrotation Xrotation Yrotation 
						End Site
						{
							OFFSET 0.0 0.0 0.0
						}
					}
				}
				JOINT Shoulder_L
				{
					OFFSET 12.9942 -0.242716 4.98039
					CHANNELS 6 Xposition Yposition Zposition Zrotation Xrotation Yrotation 
					JOINT UpperArm_L
					{
						OFFSET 5.34809 0.0 0.0
						CHANNELS 6 Xposition Yposition Zposition Zrotation Xrotation Yrotation 
						JOINT LowerArm_L
						{
							OFFSET 24.3286 1.87007e-05 0.0
							CHANNELS 6 Xposition Yposition Zposition Zrotation Xrotation Yrotation 
							JOINT Hand_L
							{
								OFFSET 22.2916 0.0 0.0
								CHANNELS 6 Xposition Yposition Zposition Zrotation Xrotation Yrotation 
								End Site
								{
									OFFSET 0.0 0.0 0.0
								}
							}
						}
					}
				}
				JOINT Shoulder_R
				{
					OFFSET 12.9945 -0.242716 -4.98039
					CHANNELS 6 Xposition Yposition Zposition Zrotation Xrotation Yrotation 
					JOINT UpperArm_R
					{
						OFFSET -5.34813 0.0 0.0
						CHANNELS 6 Xposition Yposition Zposition Zrotation Xrotation Yrotation 
						JOINT LowerArm_R
						{
							OFFSET -24.3289 0.000322201 0.0
							CHANNELS 6 Xposition Yposition Zposition Zrotation Xrotation Yrotation 
							JOINT Hand_R
							{
								OFFSET -22.2915 -0.000108084 0.0
								CHANNELS 6 Xposition Yposition Zposition Zrotation Xrotation Yrotation 
								End Site
								{
									OFFSET 0.0 0.0 0.0
								}
							}
						}
					}
				}
			}
		}
		JOINT UpperLeg_L
		{
			OFFSET -2.19248 -6.46944 0.0
			CHANNELS 6 Xposition Yposition Zposition Zrotation Xrotation Yrotation 
			JOINT LowerLeg_L
			{
				OFFSET 39.0811 0.0 -1.23785e-05
				CHANNELS 6 Xposition Yposition Zposition Zrotation Xrotation Yrotation 
				JOINT Foot_L
				{
					OFFSET 40.9854 0.0 -1.26872e-05
					CHANNELS 6 Xposition Yposition Zposition Zrotation Xrotation Yrotation 
					JOINT Toes_L
					{
						OFFSET 11.7543 0.0 0.0
						CHANNELS 6 Xposition Yposition Zposition Zrotation Xrotation Yrotation 
						End Site
						{
							OFFSET 0.0 0.0 0.0
						}
					}
				}
			}
		}
		JOINT UpperLeg_R
		{
			OFFSET -2.19251 6.46944 0.0
			CHANNELS 6 Xposition Yposition Zposition Zrotation Xrotation Yrotation 
			JOINT LowerLeg_R
			{
				OFFSET -39.0811 -0.00228153 -0.0401928
				CHANNELS 6 Xposition Yposition Zposition Zrotation Xrotation Yrotation 
				JOINT Foot_R
				{
					OFFSET -40.9854 0.0 0.0
					CHANNELS 6 Xposition Yposition Zposition Zrotation Xrotation Yrotation 
					JOINT Toes_R
					{
						OFFSET -11.7543 0.0 0.0
						CHANNELS 6 Xposition Yposition Zposition Zrotation Xrotation Yrotation 
						End Site
						{
							OFFSET 0.0 0.0 0.0
						}
					}
				}
			}
		}
	}
}
MOTION
Frames:	6
Frame Time:	0.0333333
0.000000 0.000000 0.000000 0.000000 0.000000 -0.000000 1.837020 89.103200 -45.076400 88.484000 -4.241800 -0.966893 15.735700 0.000005 -0.000001 71.323900 83.091900 -70.908000 8.984550 -0.406207 -0.000000 5.351450 -4.423110 1.037930 16.377300 -0.000001 -0.000001 -4.801760 -0.767427 0.265726 6.456720 -0.000001 -0.000000 -7.008460 1.518390 2.974670 12.994200 -0.242716 4.980390 -90.019300 0.083403 -76.971000 5.348090 -0.000007 -0.000001 -63.141300 15.828100 -29.225600 24.328600 0.000019 0.000005 -1.966550 0.016049 -90.466800 22.291600 -0.000001 0.000005 18.177500 5.532500 -7.905830 12.994500 -0.242716 -4.980390 88.613000 8.821470 -81.028200 -5.348130 -0.000001 -0.000004 -67.463500 30.673100 5.611210 -24.328900 0.000322 -0.000009 -22.312100 -6.424630 -74.747300 -22.291500 -0.000108 -0.000004 22.360200 5.650550 -15.067800 -2.192480 -6.469440 -0.000000 -177.994000 -7.543400 -6.591050 39.081100 -0.000007 -0.000012 0.011386 -0.012669 41.940500 40.985400 -0.000006 -0.000013 1.180260 -1.648060 -72.495500 11.754300 -0.000000 0.000003 -0.021274 -0.174261 -23.699000 -2.192510 6.469440 -0.000001 -171.928000 15.561900 149.115000 -39.081100 -0.002282 -0.040193 0.002439 0.001245 34.423100 -40.985400 0.000008 0.000006 0.817325 3.512080 -65.453500 -11.754300 -0.000006 -0.000006 -0.017555 -0.153351 -22.834200
0.000000 0.000000 0.000000 0.000000 0.000000 -0.000000 1.558180 89.548400 -39.901800 89.119400 -4.656400 -1.017600 15.735700 0.000005 -0.000001 70.441800 83.278000 -70.080000 8.984550 -0.406207 -0.000000 4.928740 -4.500690 0.916819 16.377300 -0.000001 -0.000001 -4.171760 -0.656705 0.207393 6.456720 -0.000001 -0.000000 -6.577370 1.587580 2.969450 12.994200 -0.242716 4.980390 -90.054600 0.230707 -76.680400 5.348090 -0.000007 -0.000001 -63.246200 18.335300 -27.133800 24.328600 0.000019 0.000005 -1.128960 -0.026724 -88.634200 22.291600 -0.000001 0.000005 18.156900 5.520440 -7.380680 12.994500 -0.242716 -4.980390 88.581700 8.958000 -80.965000 -5.348130 -0.000001 -0.000004 -65.868400 31.036000 2.815960 -24.328900 0.000322 -0.000009 -22.383200 -5.293950 -77.370900 -22.291500 -0.000108 -0.000004 22.520700 5.649360 -14.954900 -2.192480 -6.469440 -0.000000 -178.011000 -7.235730 -6.024580 39.081100 -0.000007 -0.000012 0.021047 -0.021000 45.060500 40.985400 -0.000006 -0.000013 0.256506 -0.044567 -65.168900 11.754300 -0.000000 0.000003 -0.082880 -0.399936 -33.193700 -2.192510 6.469440 -0.000001 -170.485000 18.170700 149.757000 -39.081100 -0.002282 -0.040193 0.065759 -0.109734 29.646900 -40.985400 0.000008 0.000006 5.888570 6.018140 -65.040100 -11.754300 -0.000006 -0.000006 -0.018517 -0.158934 -23.063900
0.000000 0.000000 0.000000 0.000000 0.000000 -0.000000 1.168660 89.300900 -34.400800 90.025800 -4.480360 -0.143913 15.735700 0.000005 -0.000001 71.223600 83.236000 -71.006800 8.984550 -0.406207 -0.000000 5.062000 -4.350560 0.625727 16.377300 -0.000001 -0.000001 -3.327100 -0.829662 0.083972 6.456720 -0.000001 -0.000000 -6.139140 1.343420 2.770150 12.994200 -0.242716 4.980390 -90.155500 0.639129 -76.330700 5.348090 -0.000007 -0.000001 -62.766200 21.753500 -25.143200 24.328600 0.000019 0.000005 0.544879 0.051643 -84.645600 22.291600 -0.000001 0.000005 17.788500 5.503710 -6.682760 12.994500 -0.242716 -4.980390 88.547300 9.031250 -80.822700 -5.348130 -0.000001 -0.000004 -63.653600 30.594700 -1.610900 -24.328900 0.000322 -0.000009 -22.995700 -3.836920 -81.037800 -22.291500 -0.000108 -0.000004 22.907200 5.645880 -14.633700 -2.192480 -6.469440 -0.000000 -178.063000 -6.381870 -7.178170 39.081100 -0.000007 -0.000012 0.037998 -0.029556 52.120000 40.985400 -0.000006 -0.000013 1.134850 2.274330 -56.837300 11.754300 -0.000000 0.000003 -0.101284 -0.447743 -35.270700 -2.192510 6.469440 -0.000001 -172.575000 16.574200 151.389000 -39.081100 -0.002282 -0.040193 0.046810 -0.068126 32.567500 -40.985400 0.000008 0.000006 8.134670 2.220140 -60.164500 -11.754300 -0.000006 -0.000006 -0.019048 -0.161961 -23.188500
0.000000 0.000000 0.000000 0.000000 0.000000 -0.000000 0.673041 88.317300 -29.013600 90.427900 -3.946730 1.246760 15.735700 0.000005 -0.000001 74.531400 82.960600 -74.264300 8.984550 -0.406207 -0.000000 5.821240 -3.749940 0.724545 16.377300 -0.000001 -0.000001 -2.901760 -1.192050 0.014418 6.456720 -0.000001 -0.000000 -5.820580 0.892684 2.334510 12.994200 -0.242716 4.980390 -90.307000 1.239680 -76.092100 5.348090 -0.000007 -0.000001 -61.992100 25.328100 -23.179000 24.328600 0.000019 0.000005 3.476340 0.621203 -79.897700 22.291600 -0.000001 0.000005 15.878200 5.500270 -6.544670 12.994500 -0.242716 -4.980390 88.505400 9.313290 -80.841200 -5.348130 -0.000001 -0.000004 -60.393100 28.649300 -7.322180 -24.328900 0.000322 -0.000009 -23.608300 -1.649550 -86.230400 -22.291500 -0.000108 -0.000004 23.189200 5.641210 -14.227500 -2.192480 -6.469440 -0.000000 -177.352000 -4.916580 -10.516200 39.081100 -0.000007 -0.000012 0.057399 -0.030072 62.345500 40.985400 -0.000006 -0.000013 0.374855 4.627370 -48.460500 11.754300 -0.000000 0.000003 -0.017835 -0.154998 -22.905700 -2.192510 6.469440 -0.000001 -174.936000 14.465600 152.585000 -39.081100 -0.002282 -0.040193 -0.172114 0.208158 40.117400 -40.985400 0.000008 0.000006 6.856980 -0.540411 -63.206500 -11.754300 -0.000006 -0.000006 -0.010768 -0.109287 -21.026700
0.000000 0.000000 0.000000 0.000000 0.000000 -0.000000 0.372900 87.006100 -24.195700 90.161100 -4.221580 2.206650 15.735700 0.000005 -0.000001 80.402100 82.592200 -79.862800 8.984550 -0.406207 -0.000000 6.858950 -2.466340 1.225510 16.377300 -0.000001 -0.000001 -3.346130 -1.333140 0.284905 6.456720 -0.000001 -0.000000 -5.680390 0.553206 1.689170 12.994200 -0.242716 4.980390 -90.517500 2.117690 -76.263100 5.348090 -0.000007 -0.000001 -62.163800 27.901400 -19.813000 24.328600 0.000019 0.000005 6.224260 1.642490 -75.280100 22.291600 -0.000001 0.000005 15.099400 5.511770 -7.014940 12.994500 -0.242716 -4.980390 88.509900 9.872050 -81.372200 -5.348130 -0.000001 -0.000004 -56.021600 25.409000 -14.882800 -24.328900 0.000322 -0.000009 -24.519900 0.576437 -91.262100 -22.291500 -0.000108 -0.000004 24.394600 5.639150 -14.055600 -2.192480 -6.469440 -0.000000 -176.603000 -4.762800 -14.661500 39.081100 -0.000007 -0.000012 0.077502 -0.025080 72.064200 40.985400 -0.000006 -0.000013 -0.184716 2.243570 -50.092700 11.754300 -0.000000 0.000003 -0.004122 -0.052712 -18.721000 -2.192510 6.469440 -0.000001 -175.341000 12.305100 153.586000 -39.081100 -0.002282 -0.040193 -0.055652 0.054614 47.166500 -40.985400 0.000008 0.000006 9.256440 -3.565600 -69.814600 -11.754300 -0.000006 -0.000006 -0.003704 -0.048328 -18.538800
0.000000 0.000000 0.000000 0.000000 0.000000 -0.000000 0.000360 86.018000 -19.757100 89.778800 -3.934140 2.636000 15.735700 0.000005 -0.000001 83.713200 82.207500 -82.899500 8.984550 -0.406207 -0.000000 7.740470 -1.699920 1.740960 16.377300 -0.000001 -0.000001 -3.644090 -1.470090 0.714618 6.456720 -0.000001 -0.000000 -5.937210 0.395881 1.351700 12.994200 -0.242716 4.980390 -90.785500 3.240860 -76.368100 5.348090 -0.000007 -0.000001 -63.121200 29.548500 -14.474700 24.328600 0.000019 0.000005 5.353860 1.817310 -71.300200 22.291600 -0.000001 0.000005 16.135500 5.523680 -7.518670 12.994500 -0.242716 -4.980390 88.547200 10.330500 -81.950300 -5.348130 -0.000001 -0.000004 -52.179200 21.556400 -23.358600 -24.328900 0.000322 -0.000009 -25.259400 1.926110 -94.074000 -22.291500 -0.000108 -0.000004 25.702700 5.638650 -14.016600 -2.192480 -6.469440 -0.000000 -176.246000 -4.919670 -19.892200 39.081100 -0.000007 -0.000012 0.043234 -0.008560 78.790800 40.985400 -0.000006 -0.000013 3.921720 -1.237490 -54.148000 11.754300 -0.000000 0.000003 -0.004070 -0.052169 -18.698900 -2.192510 6.469440 -0.000001 -175.572000 14.352400 155.532000 -39.081100 -0.002282 -0.040193 0.019444 -0.013065 51.115000 -40.985400 0.000008 0.000006 10.182200 -3.062360 -75.360500 -11.754300 -0.000006 -0.000006 -0.001362 -0.020423 -17.403600
